<svg id="symbol.svg" aria-hidden="true" width="0" height="0" style="position:absolute"><symbol fill="none" viewBox="0 0 24 24" stroke="currentColor" id="bag" xmlns="http://www.w3.org/2000/svg"><path stroke-linecap="round" stroke-linejoin="round" stroke-width="2" d="M16 11V7a4 4 0 00-8 0v4M5 9h14l1 12H4L5 9z"/></symbol><symbol viewBox="0 0 24 24" id="facebook" xmlns="http://www.w3.org/2000/svg"><path d="M15.997 3.985h2.191V.169C17.81.117 16.51 0 14.996 0c-3.159 0-5.323 1.987-5.323 5.639V9H6.187v4.266h3.486V24h4.274V13.267h3.345l.531-4.266h-3.877V6.062c.001-1.233.333-2.077 2.051-2.077z"/></symbol><symbol viewBox="0 0 511 511.9" id="instagram" xmlns="http://www.w3.org/2000/svg"><path d="M510.95 150.5c-1.2-27.2-5.598-45.898-11.9-62.102-6.5-17.199-16.5-32.597-29.6-45.398-12.802-13-28.302-23.102-45.302-29.5-16.296-6.3-34.898-10.7-62.097-11.898C334.648.3 325.949 0 256.449 0s-78.199.3-105.5 1.5c-27.199 1.2-45.898 5.602-62.097 11.898-17.204 6.5-32.602 16.5-45.403 29.602-13 12.8-23.097 28.3-29.5 45.3-6.3 16.302-10.699 34.9-11.898 62.098C.75 177.801.449 186.5.449 256s.301 78.2 1.5 105.5c1.2 27.2 5.602 45.898 11.903 62.102 6.5 17.199 16.597 32.597 29.597 45.398 12.801 13 28.301 23.102 45.301 29.5 16.3 6.3 34.898 10.7 62.102 11.898 27.296 1.204 36 1.5 105.5 1.5s78.199-.296 105.5-1.5c27.199-1.199 45.898-5.597 62.097-11.898a130.934 130.934 0 0074.903-74.898c6.296-16.301 10.699-34.903 11.898-62.102 1.2-27.3 1.5-36 1.5-105.5s-.102-78.2-1.3-105.5zm-46.098 209c-1.102 25-5.301 38.5-8.801 47.5-8.602 22.3-26.301 40-48.602 48.602-9 3.5-22.597 7.699-47.5 8.796-27 1.204-35.097 1.5-103.398 1.5s-76.5-.296-103.403-1.5c-25-1.097-38.5-5.296-47.5-8.796C94.551 451.5 84.45 445 76.25 436.5c-8.5-8.3-15-18.3-19.102-29.398-3.5-9-7.699-22.602-8.796-47.5-1.204-27-1.5-35.102-1.5-103.403s.296-76.5 1.5-103.398c1.097-25 5.296-38.5 8.796-47.5C61.25 94.199 67.75 84.1 76.352 75.898c8.296-8.5 18.296-15 29.398-19.097 9-3.5 22.602-7.7 47.5-8.801 27-1.2 35.102-1.5 103.398-1.5 68.403 0 76.5.3 103.403 1.5 25 1.102 38.5 5.3 47.5 8.8 11.097 4.098 21.199 10.598 29.398 19.098 8.5 8.301 15 18.301 19.102 29.403 3.5 9 7.699 22.597 8.8 47.5 1.2 27 1.5 35.097 1.5 103.398s-.3 76.301-1.5 103.301zm0 0"/><path d="M256.45 124.5c-72.598 0-131.5 58.898-131.5 131.5s58.902 131.5 131.5 131.5c72.6 0 131.5-58.898 131.5-131.5s-58.9-131.5-131.5-131.5zm0 216.8c-47.098 0-85.302-38.198-85.302-85.3s38.204-85.3 85.301-85.3c47.102 0 85.301 38.198 85.301 85.3s-38.2 85.3-85.3 85.3zm167.402-222c0 16.954-13.747 30.7-30.704 30.7-16.953 0-30.699-13.746-30.699-30.7 0-16.956 13.746-30.698 30.7-30.698 16.956 0 30.703 13.742 30.703 30.699zm0 0"/></symbol><symbol viewBox="0 0 20 20" fill="currentColor" id="left" xmlns="http://www.w3.org/2000/svg"><path fill-rule="evenodd" d="M12.707 5.293a1 1 0 010 1.414L9.414 10l3.293 3.293a1 1 0 01-1.414 1.414l-4-4a1 1 0 010-1.414l4-4a1 1 0 011.414 0z" clip-rule="evenodd"/></symbol><symbol viewBox="0 0 141 43" id="logo" xmlns="http://www.w3.org/2000/svg"><path d="M4.7 11.25c.56 0 1.12.07 1.67.14a.35.35 0 00.37-.22 13.87 13.87 0 0126.68 3.3 22.48 22.48 0 00-10.87 4.38 22.67 22.67 0 00-9.76-8.1l.09-.11a8.75 8.75 0 015.59-3.13 9.67 9.67 0 011.2-.08 8.66 8.66 0 015 1.58 8.83 8.83 0 013 3.65.34.34 0 00.43.19c.52-.17 1-.33 1.57-.46a.35.35 0 00.24-.2.33.33 0 000-.29 11.13 11.13 0 00-20.4-.27.34.34 0 000 .28.35.35 0 00.22.19 20.47 20.47 0 0112 9.93.38.38 0 00.25.18h.06a.36.36 0 00.24-.09 20.4 20.4 0 0113.25-5.48.36.36 0 00.34-.35 16.21 16.21 0 00-31.48-5.52.36.36 0 00.31.47z"/><path d="M39.09 19.86a.34.34 0 00-.29-.29 19.07 19.07 0 00-2.6-.19 17.57 17.57 0 00-15.09 8.45l-.14.22v-.25A17.62 17.62 0 003.79 13.96a18.23 18.23 0 00-3.29.31.34.34 0 00-.28.29 17.42 17.42 0 003.34 13.32 17.73 17.73 0 0011.93 6.84.35.35 0 00.38-.27A12.46 12.46 0 005.75 19.19a.36.36 0 00-.31.1.35.35 0 00-.09.31 12.87 12.87 0 00.49 1.82.37.37 0 00.25.22 10.17 10.17 0 017.78 10.25v.13a15.24 15.24 0 01-11.5-15.68h1.34a15.18 15.18 0 0115.06 17.7 17.78 17.78 0 000 5.91.34.34 0 00.29.29 16.88 16.88 0 001.73.17.34.34 0 00.26-.12.34.34 0 00.08-.29 15.34 15.34 0 0115.18-18.27h.64a15.32 15.32 0 01-11 15.72v-.13a10.31 10.31 0 017.26-10.06.34.34 0 00.22-.22 12.08 12.08 0 00.56-1.85.37.37 0 00-.1-.32.34.34 0 00-.32-.09 12.81 12.81 0 00-8 5.54 12.47 12.47 0 00-1.66 9.64.35.35 0 00.4.26 17.9 17.9 0 0011.61-7.09 17.59 17.59 0 003.17-13.27zm19.83-1.67V4.87a.37.37 0 00-.37-.37h-1.82a.38.38 0 00-.37.37v8.16l-8.15-8.65a.25.25 0 00-.18-.08h-.39a.37.37 0 00-.37.38v13.26a.37.37 0 00.37.38h1.8a.38.38 0 00.37-.38V9.45l8.18 9a.25.25 0 00.18.08h.37a.37.37 0 00.38-.34zm23.67 17.33v-11.9a.34.34 0 00-.34-.33h-1.63a.33.33 0 00-.33.33v7.31l-7.32-7.74a.24.24 0 00-.16-.07h-.35a.34.34 0 00-.33.34v11.88a.34.34 0 00.33.34h1.61a.34.34 0 00.34-.34v-7.61l7.33 8.05a.21.21 0 00.16.08h.31a.34.34 0 00.38-.34zm46.36 0v-11.9a.33.33 0 00-.33-.33h-1.63a.34.34 0 00-.34.33v7.31l-7.31-7.74a.24.24 0 00-.16-.07h-.35a.34.34 0 00-.34.34v11.88a.34.34 0 00.34.34h1.61a.34.34 0 00.34-.34v-7.61l7.34 8.05a.21.21 0 00.16.08h.33a.34.34 0 00.34-.34zM86.15 6.49V4.87a.38.38 0 00-.37-.37h-9.31a.38.38 0 00-.38.37v1.62a.38.38 0 00.38.38h3.36v11.07a.39.39 0 00.37.38h1.84a.39.39 0 00.38-.38V6.87h3.36a.38.38 0 00.37-.38zm14.59 6.6V4.87a.39.39 0 00-.38-.37h-1.87a.38.38 0 00-.38.37v8.1a2.87 2.87 0 11-5.74 0v-8.1a.38.38 0 00-.38-.37h-1.87a.39.39 0 00-.38.37v8.22a5.5 5.5 0 0011 0zm27.84-8.59h-8a.38.38 0 00-.37.37v13.07a.38.38 0 00.37.38h8a.37.37 0 00.37-.38v-1.62a.37.37 0 00-.37-.37h-5.84v-3.46h4.87a.37.37 0 00.38-.37v-1.64a.39.39 0 00-.38-.38h-4.87V6.87h5.84a.37.37 0 00.37-.38V4.87a.37.37 0 00-.37-.37zm12.04 11.9h-7.12c-.22 0-.38.13-.38.29v1.35c0 .15.16.28.38.28h7.12c.22 0 .38-.13.38-.28v-1.35c0-.16-.16-.29-.38-.29zM51.49 28.35c-1.43-.58-2.09-1.15-2.09-2a1.41 1.41 0 011.56-1.24 5.82 5.82 0 012.46 1 .47.47 0 00.62-.21l.67-1a.43.43 0 00-.1-.58 6.24 6.24 0 00-3.55-1.19c-2.81 0-4 1.82-4 3.4 0 2.09 1.67 3.15 3.33 3.82 1.49.61 2.25 1.22 2.25 2.13a1.48 1.48 0 01-1.61 1.36 5.83 5.83 0 01-2.68-1.1.41.41 0 00-.6.13l-.64 1.09c-.15.29-.07.38.09.54a5.76 5.76 0 003.9 1.38c2.51-.02 4.11-1.69 4.11-3.53 0-2.28-2-3.31-3.72-4zm16.26-5.06h-1.68a.34.34 0 00-.34.33v7.26a2.58 2.58 0 11-5.15 0v-7.26a.33.33 0 00-.37-.33h-1.65a.35.35 0 00-.33.33v7.37a4.93 4.93 0 009.86 0v-7.37a.35.35 0 00-.34-.33zm22.73 5.06c-1.44-.58-2.09-1.15-2.09-2a1.41 1.41 0 011.56-1.24 5.82 5.82 0 012.46 1 .47.47 0 00.62-.21l.67-1a.43.43 0 00-.11-.58 6.16 6.16 0 00-3.54-1.19c-2.81 0-4 1.82-4 3.4 0 2.09 1.66 3.15 3.33 3.82 1.49.61 2.25 1.22 2.25 2.13a1.48 1.48 0 01-1.61 1.36 5.83 5.83 0 01-2.68-1.1.41.41 0 00-.6.13l-.64 1.09c-.16.29-.07.38.09.54a5.76 5.76 0 003.9 1.38c2.49 0 4.07-1.69 4.07-3.51.05-2.3-1.95-3.33-3.68-4.02zm17.05-5.06h-1.63a.34.34 0 00-.34.33v5.65c-1.41-1.06-3.27-1.37-5.54-1.37h-.23v-4.28a.33.33 0 00-.33-.33h-1.65a.34.34 0 00-.34.33v11.72a.34.34 0 00.34.34h1.65a.34.34 0 00.33-.34v-5.36c2.55 0 4.36.36 5.43 1.73a1.65 1.65 0 01.33 1v2.6a.34.34 0 00.34.34h1.63a.34.34 0 00.34-.34V23.62a.34.34 0 00-.33-.33z"/><rect x="112.03" y="23.29" width="2.32" height="12.39" rx=".34"/><path d="M140.66 23.29h-7.2a.34.34 0 00-.34.33v11.72a.34.34 0 00.34.34h7.2a.34.34 0 00.34-.34v-1.45a.34.34 0 00-.34-.34h-5.24v-3.09h4.38a.34.34 0 00.33-.34v-1.47a.34.34 0 00-.33-.33h-4.38v-2.91h5.24a.34.34 0 00.34-.33v-1.46a.34.34 0 00-.34-.33zM72.6 18.01a.53.53 0 00.52.31h1.72a.35.35 0 00.33-.52L69.09 4.52a.34.34 0 00-.34-.22h-.19a.36.36 0 00-.34.22L62.08 17.8a.35.35 0 00.34.52h1.71a.6.6 0 00.58-.4l1-2.13.27-.6a8.52 8.52 0 011-.06c2.76 0 4.63 1.13 5.63 2.89zm-5.74-4.91l1.72-3.84h.06l2 4.34.06.12a10.21 10.21 0 00-3.62-.62zm38.35-8.23a.38.38 0 01.38-.37h5.62a4.28 4.28 0 014.31 4.24 4.36 4.36 0 01-2.93 4l2.71 5a.37.37 0 01-.34.57h-2.05a.34.34 0 01-.32-.18l-2.62-5.23h-2.19v5a.39.39 0 01-.38.38h-1.81a.38.38 0 01-.38-.38zm5.8 5.93a2 2 0 002-2 2 2 0 00-2-1.91h-3.21v3.93zm22.2 2.56l.56-1a.47.47 0 01.66-.12 5.61 5.61 0 002.45.66c.79 0 1.3-.31 1.3-.86s-.58-1-2-1.65c-1.63-.69-3-1.65-3-3.32 0-1.27 1.09-2.79 3.62-2.79a6.12 6.12 0 013.12.79.56.56 0 01.21.73l-.48.86a.57.57 0 01-.69.21 6.23 6.23 0 00-2.16-.53c-.9 0-1.19.38-1.19.76 0 .65.66.93 1.69 1.36 1.93.81 3.51 1.6 3.51 3.5 0 1.57-1.55 3-3.9 3a5.72 5.72 0 01-3.49-1 .42.42 0 01-.21-.6z"/></symbol><symbol viewBox="0 0 24 24" id="pinterest" xmlns="http://www.w3.org/2000/svg"><path d="M12.326 0C5.747.001 2.25 4.216 2.25 8.812c0 2.131 1.191 4.79 3.098 5.633.544.245.472-.054.94-1.844a.425.425 0 00-.102-.417c-2.726-3.153-.532-9.635 5.751-9.635 9.093 0 7.394 12.582 1.582 12.582-1.498 0-2.614-1.176-2.261-2.631.428-1.733 1.266-3.596 1.266-4.845 0-3.148-4.69-2.681-4.69 1.49 0 1.289.456 2.159.456 2.159S6.781 17.4 6.501 18.539c-.474 1.928.064 5.049.111 5.318.029.148.195.195.288.073.149-.195 1.973-2.797 2.484-4.678.186-.685.949-3.465.949-3.465.503.908 1.953 1.668 3.498 1.668 4.596 0 7.918-4.04 7.918-9.053C21.733 3.596 17.62 0 12.326 0z"/></symbol><symbol fill="none" viewBox="0 0 24 24" stroke="currentColor" id="plus" xmlns="http://www.w3.org/2000/svg"><path stroke-linecap="round" stroke-linejoin="round" stroke-width="2" d="M12 6v6m0 0v6m0-6h6m-6 0H6"/></symbol><symbol viewBox="0 0 20 20" fill="currentColor" id="right" xmlns="http://www.w3.org/2000/svg"><path fill-rule="evenodd" d="M7.293 14.707a1 1 0 010-1.414L10.586 10 7.293 6.707a1 1 0 011.414-1.414l4 4a1 1 0 010 1.414l-4 4a1 1 0 01-1.414 0z" clip-rule="evenodd"/></symbol><symbol viewBox="0 0 512 332" id="ro" xmlns="http://www.w3.org/2000/svg"><g fill="none"><path d="M170.667.839H16.516l-6.032 16.516v289.796c0 9.121 7.395 16.516 16.516 16.516h143.667l19.269-17.283V25.616L170.667.839z" fill="#0D337F"/><path d="M341.333 323.5h154.151L512 314.645V17.355C512 8.234 504.605.839 495.484.839H341.333l-19.269 24.778v280.768l19.269 17.115z" fill="#CE3A4A"/><path d="M512 314.645H328.489l12.844 16.516h154.151c9.121 0 16.516-7.394 16.516-16.516z" fill="#CE1126"/><path d="M16.516 265.097V.839C7.395.839 0 8.233 0 17.355v297.29c0 9.122 7.395 16.516 16.516 16.516h154.151l12.844-16.516H66.065c-27.365 0-49.549-22.183-49.549-49.548z" fill="#002B7F"/><path fill="#FCDD56" d="M187.333 323.667h141l13-9.022V.839H170.667v313.806z"/><path fill="#FCD116" d="M170.667 314.645h170.666v16.516H170.667z"/></g></symbol><symbol viewBox="0 0 512 512" id="ru" xmlns="http://www.w3.org/2000/svg"><path d="M512 200.946v-93.591c0-9.122-7.395-16.516-16.516-16.516H16.516l-8.849 16.516v93.591l17.104 22.022h462.456z" fill="#f2f2f6"/><path d="M0 107.355v93.591l16.516 14.683V90.839C7.395 90.839 0 98.233 0 107.355z" fill="#e1e1e6"/><path d="M7.817 311.054v86.43c0 9.122 7.395 16.516 16.516 16.516h471.151L512 404.645v-93.591l-24.77-22.022H24.774z" fill="#e5646e"/><path d="M16.516 355.097v-58.724L0 311.054v93.591c0 9.122 7.395 16.516 16.516 16.516h478.968c9.121 0 16.516-7.394 16.516-16.516H66.065c-27.365 0-49.549-22.183-49.549-49.548z" fill="#db4655"/><path d="M8.667 297l7.849 14.053H512V200.946H16.516l-7.849 17.387z" fill="#5055a0"/><path d="M0 200.946h16.516v110.107H0z" fill="#3f3f8f"/></symbol><symbol fill="none" viewBox="0 0 24 24" stroke="currentColor" id="search" xmlns="http://www.w3.org/2000/svg"><path stroke-linecap="round" stroke-linejoin="round" stroke-width="2" d="M21 21l-6-6m2-5a7 7 0 11-14 0 7 7 0 0114 0z"/></symbol><symbol viewBox="0 0 512 512" id="twitter" xmlns="http://www.w3.org/2000/svg"><path d="M512 97.248c-19.04 8.352-39.328 13.888-60.48 16.576 21.76-12.992 38.368-33.408 46.176-58.016-20.288 12.096-42.688 20.64-66.56 25.408C411.872 60.704 384.416 48 354.464 48c-58.112 0-104.896 47.168-104.896 104.992 0 8.32.704 16.32 2.432 23.936-87.264-4.256-164.48-46.08-216.352-109.792-9.056 15.712-14.368 33.696-14.368 53.056 0 36.352 18.72 68.576 46.624 87.232-16.864-.32-33.408-5.216-47.424-12.928v1.152c0 51.008 36.384 93.376 84.096 103.136-8.544 2.336-17.856 3.456-27.52 3.456-6.72 0-13.504-.384-19.872-1.792 13.6 41.568 52.192 72.128 98.08 73.12-35.712 27.936-81.056 44.768-130.144 44.768-8.608 0-16.864-.384-25.12-1.44C46.496 446.88 101.6 464 161.024 464c193.152 0 298.752-160 298.752-298.688 0-4.64-.16-9.12-.384-13.568 20.832-14.784 38.336-33.248 52.608-54.496z"/></symbol><symbol viewBox="0 0 512 512" id="usa" xmlns="http://www.w3.org/2000/svg"><path d="M495.484 90.839H264.258L9 267.5v146.833h486.484L512 404.645v-30.673l-10.75-10.222v-29l10.75-7.967v-47.189l-9.667-9.261v-29.667l9.667-8.262v-47.188l-9.667-8.549v-26L512 138.028v-30.673c0-9.122-7.395-16.516-16.516-16.516z" fill="#e5646e"/><path d="M256.333 138.028H512v47.189H256.333zM256 232.405l8.258 47.189H512v-47.189z" fill="#f2f2f6"/><path d="M16.516 355.097V271L0 279.594v47.189l7 5.967v31l-7 10.222v30.673c0 9.122 7.395 16.516 16.516 16.516h478.968c9.121 0 16.516-7.395 16.516-16.516H66.065c-27.365 0-49.549-22.183-49.549-49.548z" fill="#db4655"/><path d="M264.258 90.839H16.516L6 107.355l10.516 172.239h247.742z" fill="#5055a0"/><path d="M16.516 90.839C7.395 90.839 0 98.233 0 107.355v172.239h16.516z" fill="#3f3f8f"/><path d="M33.113 127.657c-4.565 0-8.298-3.698-8.298-8.258s3.653-8.258 8.218-8.258h.081c4.565 0 8.258 3.698 8.258 8.258s-3.695 8.258-8.259 8.258zm0 66.065c-4.565 0-8.298-3.698-8.298-8.258s3.653-8.258 8.218-8.258h.081c4.565 0 8.258 3.698 8.258 8.258s-3.695 8.258-8.259 8.258zm0 66.064c-4.565 0-8.298-3.698-8.298-8.258s3.653-8.258 8.218-8.258h.081c4.565 0 8.258 3.698 8.258 8.258s-3.695 8.258-8.259 8.258z" fill="#fff"/><path d="M33.113 160.69c-4.565 0-8.298-3.698-8.298-8.258s3.653-8.258 8.218-8.258h.081a8.256 8.256 0 018.258 8.258 8.258 8.258 0 01-8.259 8.258zm0 66.064c-4.565 0-8.298-3.698-8.298-8.258s3.653-8.258 8.218-8.258h.081c4.565 0 8.258 3.698 8.258 8.258s-3.695 8.258-8.259 8.258z" fill="#f2f2f6"/><path d="M231.306 127.657c-4.565 0-8.298-3.698-8.298-8.258s3.653-8.258 8.218-8.258h.081c4.565 0 8.258 3.698 8.258 8.258s-3.694 8.258-8.259 8.258zm0 66.065c-4.565 0-8.298-3.698-8.298-8.258s3.653-8.258 8.218-8.258h.081c4.565 0 8.258 3.698 8.258 8.258s-3.694 8.258-8.259 8.258zm0 66.064c-4.565 0-8.298-3.698-8.298-8.258s3.653-8.258 8.218-8.258h.081c4.565 0 8.258 3.698 8.258 8.258s-3.694 8.258-8.259 8.258z" fill="#fff"/><path d="M231.306 160.69c-4.565 0-8.298-3.698-8.298-8.258s3.653-8.258 8.218-8.258h.081c4.565 0 8.258 3.698 8.258 8.258s-3.694 8.258-8.259 8.258zm0 66.064c-4.565 0-8.298-3.698-8.298-8.258s3.653-8.258 8.218-8.258h.081c4.565 0 8.258 3.698 8.258 8.258s-3.694 8.258-8.259 8.258zM82.661 127.657c-4.565 0-8.298-3.698-8.298-8.258s3.653-8.258 8.218-8.258h.081c4.565 0 8.258 3.698 8.258 8.258s-3.694 8.258-8.259 8.258zm0 66.065c-4.565 0-8.298-3.698-8.298-8.258s3.653-8.258 8.218-8.258h.081c4.565 0 8.258 3.698 8.258 8.258s-3.694 8.258-8.259 8.258zm0 66.064c-4.565 0-8.298-3.698-8.298-8.258s3.653-8.258 8.218-8.258h.081c4.565 0 8.258 3.698 8.258 8.258s-3.694 8.258-8.259 8.258z" fill="#f2f2f6"/><path d="M82.661 160.69c-4.565 0-8.298-3.698-8.298-8.258s3.653-8.258 8.218-8.258h.081a8.256 8.256 0 018.258 8.258 8.257 8.257 0 01-8.259 8.258zm0 66.064c-4.565 0-8.298-3.698-8.298-8.258s3.653-8.258 8.218-8.258h.081c4.565 0 8.258 3.698 8.258 8.258s-3.694 8.258-8.259 8.258zm-24.774-82.581c-4.565 0-8.298-3.698-8.298-8.258s3.653-8.258 8.218-8.258h.081a8.256 8.256 0 018.258 8.258 8.257 8.257 0 01-8.259 8.258zm0 66.065c-4.565 0-8.298-3.698-8.298-8.258s3.653-8.258 8.218-8.258h.081c4.565 0 8.258 3.698 8.258 8.258s-3.694 8.258-8.259 8.258z" fill="#fff"/><path d="M57.887 177.206c-4.565 0-8.298-3.698-8.298-8.258s3.653-8.258 8.218-8.258h.081c4.565 0 8.258 3.698 8.258 8.258s-3.694 8.258-8.259 8.258zm0 66.064c-4.565 0-8.298-3.698-8.298-8.258s3.653-8.258 8.218-8.258h.081c4.565 0 8.258 3.698 8.258 8.258s-3.694 8.258-8.259 8.258z" fill="#f2f2f6"/><path d="M132.21 127.657c-4.565 0-8.298-3.698-8.298-8.258s3.653-8.258 8.218-8.258h.081c4.565 0 8.258 3.698 8.258 8.258s-3.695 8.258-8.259 8.258zm0 66.065c-4.565 0-8.298-3.698-8.298-8.258s3.653-8.258 8.218-8.258h.081c4.565 0 8.258 3.698 8.258 8.258s-3.695 8.258-8.259 8.258zm0 66.064c-4.565 0-8.298-3.698-8.298-8.258s3.653-8.258 8.218-8.258h.081c4.565 0 8.258 3.698 8.258 8.258s-3.695 8.258-8.259 8.258z" fill="#fff"/><path d="M132.21 160.69c-4.565 0-8.298-3.698-8.298-8.258s3.653-8.258 8.218-8.258h.081a8.256 8.256 0 018.258 8.258 8.258 8.258 0 01-8.259 8.258zm0 66.064c-4.565 0-8.298-3.698-8.298-8.258s3.653-8.258 8.218-8.258h.081c4.565 0 8.258 3.698 8.258 8.258s-3.695 8.258-8.259 8.258zm-24.775-82.581c-4.565 0-8.298-3.698-8.298-8.258s3.653-8.258 8.218-8.258h.081a8.256 8.256 0 018.258 8.258 8.256 8.256 0 01-8.259 8.258zm0 66.065c-4.565 0-8.298-3.698-8.298-8.258s3.653-8.258 8.218-8.258h.081c4.565 0 8.258 3.698 8.258 8.258s-3.694 8.258-8.259 8.258z" fill="#f2f2f6"/><path d="M107.435 177.206c-4.565 0-8.298-3.698-8.298-8.258s3.653-8.258 8.218-8.258h.081c4.565 0 8.258 3.698 8.258 8.258s-3.694 8.258-8.259 8.258zm0 66.064c-4.565 0-8.298-3.698-8.298-8.258s3.653-8.258 8.218-8.258h.081c4.565 0 8.258 3.698 8.258 8.258s-3.694 8.258-8.259 8.258z" fill="#fff"/><path d="M181.677 127.657c-4.565 0-8.298-3.698-8.298-8.258s3.653-8.258 8.218-8.258h.081c4.565 0 8.258 3.698 8.258 8.258s-3.694 8.258-8.259 8.258zm0 66.065c-4.565 0-8.298-3.698-8.298-8.258s3.653-8.258 8.218-8.258h.081c4.565 0 8.258 3.698 8.258 8.258s-3.694 8.258-8.259 8.258zm0 66.064c-4.565 0-8.298-3.698-8.298-8.258s3.653-8.258 8.218-8.258h.081c4.565 0 8.258 3.698 8.258 8.258s-3.694 8.258-8.259 8.258z" fill="#f2f2f6"/><path d="M181.677 160.69c-4.565 0-8.298-3.698-8.298-8.258s3.653-8.258 8.218-8.258h.081a8.256 8.256 0 018.258 8.258 8.257 8.257 0 01-8.259 8.258zm0 66.064c-4.565 0-8.298-3.698-8.298-8.258s3.653-8.258 8.218-8.258h.081c4.565 0 8.258 3.698 8.258 8.258s-3.694 8.258-8.259 8.258zm-24.774-82.581c-4.565 0-8.298-3.698-8.298-8.258s3.653-8.258 8.218-8.258h.081a8.256 8.256 0 018.258 8.258 8.257 8.257 0 01-8.259 8.258zm0 66.065c-4.565 0-8.298-3.698-8.298-8.258s3.653-8.258 8.218-8.258h.081c4.565 0 8.258 3.698 8.258 8.258s-3.694 8.258-8.259 8.258z" fill="#fff"/><path d="M156.903 177.206c-4.565 0-8.298-3.698-8.298-8.258s3.653-8.258 8.218-8.258h.081c4.565 0 8.258 3.698 8.258 8.258s-3.694 8.258-8.259 8.258zm0 66.064c-4.565 0-8.298-3.698-8.298-8.258s3.653-8.258 8.218-8.258h.081c4.565 0 8.258 3.698 8.258 8.258s-3.694 8.258-8.259 8.258zm49.629-99.097c-4.565 0-8.298-3.698-8.298-8.258s3.653-8.258 8.218-8.258h.081a8.256 8.256 0 018.258 8.258 8.257 8.257 0 01-8.259 8.258zm0 66.065c-4.565 0-8.298-3.698-8.298-8.258s3.653-8.258 8.218-8.258h.081c4.565 0 8.258 3.698 8.258 8.258s-3.694 8.258-8.259 8.258z" fill="#f2f2f6"/><path d="M206.532 177.206c-4.565 0-8.298-3.698-8.298-8.258s3.653-8.258 8.218-8.258h.081c4.565 0 8.258 3.698 8.258 8.258s-3.694 8.258-8.259 8.258zm0 66.064c-4.565 0-8.298-3.698-8.298-8.258s3.653-8.258 8.218-8.258h.081c4.565 0 8.258 3.698 8.258 8.258s-3.694 8.258-8.259 8.258z" fill="#fff"/><path d="M3 360.333l17.26 13.639H512v-47.189H16.516z" fill="#f2f2f6"/><path d="M0 326.783v47.189h20.26a49.372 49.372 0 01-3.743-18.876v-28.314H0z" fill="#e1e1e6"/></symbol><symbol fill="none" viewBox="0 0 24 24" stroke="currentColor" id="user-log" xmlns="http://www.w3.org/2000/svg"><path stroke-linecap="round" stroke-linejoin="round" stroke-width="2" d="M16 7a4 4 0 11-8 0 4 4 0 018 0zm-4 7a7 7 0 00-7 7h14a7 7 0 00-7-7z"/></symbol><symbol fill="none" viewBox="0 0 24 24" stroke="currentColor" id="user-reg" xmlns="http://www.w3.org/2000/svg"><path stroke-linecap="round" stroke-linejoin="round" stroke-width="2" d="M18 9v3m0 0v3m0-3h3m-3 0h-3m-2-5a4 4 0 11-8 0 4 4 0 018 0zM3 20a6 6 0 0112 0v1H3v-1z"/></symbol><symbol viewBox="-21 -117 682.667 682" id="youtube" xmlns="http://www.w3.org/2000/svg"><path d="M626.813 64.035c-7.375-27.418-28.993-49.031-56.407-56.414C520.324-6.082 319.992-6.082 319.992-6.082s-200.324 0-250.406 13.184c-26.887 7.375-49.031 29.52-56.406 56.933C0 114.113 0 217.97 0 217.97s0 104.379 13.18 153.933c7.382 27.414 28.992 49.028 56.41 56.41C120.195 442.02 320 442.02 320 442.02s200.324 0 250.406-13.184c27.418-7.379 49.032-28.992 56.414-56.406 13.176-50.082 13.176-153.934 13.176-153.934s.527-104.383-13.183-154.46zM256.21 313.915V122.022l166.586 95.946zm0 0"/></symbol></svg>