<svg id="sprite-logo" viewBox="0 0 141 43" xmlns="http://www.w3.org/2000/svg">
  <path d="M29.49,41.06c.56,0,1.12.07,1.67.14a.35.35,0,0,0,.37-.22,13.87,13.87,0,0,1,26.68,3.3,22.48,22.48,0,0,0-10.87,4.38,22.67,22.67,0,0,0-9.76-8.1l.09-.11a8.75,8.75,0,0,1,5.59-3.13,9.67,9.67,0,0,1,1.2-.08,8.66,8.66,0,0,1,5,1.58,8.83,8.83,0,0,1,3,3.65.34.34,0,0,0,.43.19c.52-.17,1-.33,1.57-.46A.35.35,0,0,0,54.7,42a.33.33,0,0,0,0-.29,11.13,11.13,0,0,0-20.4-.27.34.34,0,0,0,0,.28.35.35,0,0,0,.22.19,20.47,20.47,0,0,1,12,9.93.38.38,0,0,0,.25.18h.06a.36.36,0,0,0,.24-.09,20.4,20.4,0,0,1,13.25-5.48.36.36,0,0,0,.34-.35,16.21,16.21,0,0,0-31.48-5.52.36.36,0,0,0,.31.47Z" transform="translate(-24.79 -29.81)"></path>
  <path d="M63.88,49.67a.34.34,0,0,0-.29-.29,19.07,19.07,0,0,0-2.6-.19A17.57,17.57,0,0,0,45.9,57.64l-.14.22,0-.25A17.62,17.62,0,0,0,28.58,43.77a18.23,18.23,0,0,0-3.29.31.34.34,0,0,0-.28.29,17.42,17.42,0,0,0,3.34,13.32,17.73,17.73,0,0,0,11.93,6.84.35.35,0,0,0,.38-.27A12.46,12.46,0,0,0,30.54,49a.36.36,0,0,0-.31.1.35.35,0,0,0-.09.31,12.87,12.87,0,0,0,.49,1.82.37.37,0,0,0,.25.22,10.17,10.17,0,0,1,7.78,10.25v.13a15.24,15.24,0,0,1-11.5-15.68c.45,0,.9,0,1.34,0a15.18,15.18,0,0,1,15.06,17.7,17.78,17.78,0,0,0,0,5.91.34.34,0,0,0,.29.29,16.88,16.88,0,0,0,1.73.17h0a.34.34,0,0,0,.26-.12.34.34,0,0,0,.08-.29A15.34,15.34,0,0,1,61.1,51.54h.64a15.32,15.32,0,0,1-11,15.72v-.13A10.31,10.31,0,0,1,58,57.07a.34.34,0,0,0,.22-.22A12.08,12.08,0,0,0,58.78,55a.37.37,0,0,0-.1-.32.34.34,0,0,0-.32-.09,12.81,12.81,0,0,0-8,5.54,12.47,12.47,0,0,0-1.66,9.64.35.35,0,0,0,.4.26,17.9,17.9,0,0,0,11.61-7.09A17.59,17.59,0,0,0,63.88,49.67Z" transform="translate(-24.79 -29.81)"></path>
  <path d="M83.71,48V34.68a.37.37,0,0,0-.37-.37H81.52a.38.38,0,0,0-.37.37v8.16h0L73,34.19a.25.25,0,0,0-.18-.08h-.39a.37.37,0,0,0-.37.38V47.75a.37.37,0,0,0,.37.38h1.8a.38.38,0,0,0,.37-.38V39.26h0l8.18,9a.25.25,0,0,0,.18.08h.37A.37.37,0,0,0,83.71,48Z" transform="translate(-24.79 -29.81)"></path>
  <path d="M107.38,65.33V53.43a.34.34,0,0,0-.34-.33h-1.63a.33.33,0,0,0-.33.33v7.31h0L97.76,53a.24.24,0,0,0-.16-.07h-.35a.34.34,0,0,0-.33.34V65.15a.34.34,0,0,0,.33.34h1.61a.34.34,0,0,0,.34-.34V57.54h0l7.33,8.05a.21.21,0,0,0,.16.08H107A.34.34,0,0,0,107.38,65.33Z" transform="translate(-24.79 -29.81)"></path>
  <path d="M153.74,65.33V53.43a.33.33,0,0,0-.33-.33h-1.63a.34.34,0,0,0-.34.33v7.31h0L144.13,53a.24.24,0,0,0-.16-.07h-.35a.34.34,0,0,0-.34.34V65.15a.34.34,0,0,0,.34.34h1.61a.34.34,0,0,0,.34-.34V57.54h0l7.34,8.05a.21.21,0,0,0,.16.08h.33A.34.34,0,0,0,153.74,65.33Z" transform="translate(-24.79 -29.81)"></path>
  <path d="M110.94,36.3V34.68a.38.38,0,0,0-.37-.37h-9.31a.38.38,0,0,0-.38.37V36.3a.38.38,0,0,0,.38.38h3.36V47.75a.39.39,0,0,0,.37.38h1.84a.39.39,0,0,0,.38-.38V36.68h3.36A.38.38,0,0,0,110.94,36.3Z" transform="translate(-24.79 -29.81)"></path>
  <path d="M125.53,42.9V34.68a.39.39,0,0,0-.38-.37h-1.87a.38.38,0,0,0-.38.37v8.1a2.87,2.87,0,1,1-5.74,0V34.68a.38.38,0,0,0-.38-.37h-1.87a.39.39,0,0,0-.38.37V42.9a5.5,5.5,0,0,0,11,0Z" transform="translate(-24.79 -29.81)"></path>
  <path d="M153.37,34.31h-8a.38.38,0,0,0-.37.37V47.75a.38.38,0,0,0,.37.38h8a.37.37,0,0,0,.37-.38V46.13a.37.37,0,0,0-.37-.37h-5.84V42.3h4.87a.37.37,0,0,0,.38-.37V40.29a.39.39,0,0,0-.38-.38h-4.87V36.68h5.84a.37.37,0,0,0,.37-.38V34.68A.37.37,0,0,0,153.37,34.31Z" transform="translate(-24.79 -29.81)"></path>
  <path d="M165.41,46.21h-7.12c-.22,0-.38.13-.38.29v1.35c0,.15.16.28.38.28h7.12c.22,0,.38-.13.38-.28V46.5C165.79,46.34,165.63,46.21,165.41,46.21Z" transform="translate(-24.79 -29.81)"></path>
  <path d="M76.28,58.16c-1.43-.58-2.09-1.15-2.09-2a1.41,1.41,0,0,1,1.56-1.24,5.82,5.82,0,0,1,2.46,1,.47.47,0,0,0,.62-.21l.67-1a.43.43,0,0,0-.1-.58,6.24,6.24,0,0,0-3.55-1.19c-2.81,0-4,1.82-4,3.4,0,2.09,1.67,3.15,3.33,3.82,1.49.61,2.25,1.22,2.25,2.13a1.48,1.48,0,0,1-1.61,1.36,5.83,5.83,0,0,1-2.68-1.1.41.41,0,0,0-.6.13l-.64,1.09c-.15.29-.07.38.09.54a5.76,5.76,0,0,0,3.9,1.38C78.4,65.67,80,64,80,62.16,80,59.88,78,58.85,76.28,58.16Z" transform="translate(-24.79 -29.81)"></path>
  <path d="M92.54,53.1H90.86a.34.34,0,0,0-.34.33v7.26a2.58,2.58,0,1,1-5.15,0V53.43A.33.33,0,0,0,85,53.1H83.35a.35.35,0,0,0-.33.33V60.8a4.93,4.93,0,0,0,9.86,0V53.43A.35.35,0,0,0,92.54,53.1Z" transform="translate(-24.79 -29.81)"></path>
  <path d="M115.27,58.16c-1.44-.58-2.09-1.15-2.09-2a1.41,1.41,0,0,1,1.56-1.24,5.82,5.82,0,0,1,2.46,1,.47.47,0,0,0,.62-.21l.67-1a.43.43,0,0,0-.11-.58,6.16,6.16,0,0,0-3.54-1.19c-2.81,0-4,1.82-4,3.4,0,2.09,1.66,3.15,3.33,3.82,1.49.61,2.25,1.22,2.25,2.13a1.48,1.48,0,0,1-1.61,1.36,5.83,5.83,0,0,1-2.68-1.1.41.41,0,0,0-.6.13l-.64,1.09c-.16.29-.07.38.09.54a5.76,5.76,0,0,0,3.9,1.38c2.49,0,4.07-1.69,4.07-3.51C119,59.88,117,58.85,115.27,58.16Z" transform="translate(-24.79 -29.81)"></path>
  <path d="M132.32,53.1h-1.63a.34.34,0,0,0-.34.33v5.65c-1.41-1.06-3.27-1.37-5.54-1.37h-.23V53.43a.33.33,0,0,0-.33-.33H122.6a.34.34,0,0,0-.34.33V65.15a.34.34,0,0,0,.34.34h1.65a.34.34,0,0,0,.33-.34V59.79h0c2.55,0,4.36.36,5.43,1.73a1.65,1.65,0,0,1,.33,1v2.6a.34.34,0,0,0,.34.34h1.63a.34.34,0,0,0,.34-.34V53.43A.34.34,0,0,0,132.32,53.1Z" transform="translate(-24.79 -29.81)"></path>
  <rect x="112.03" y="23.29" width="2.32" height="12.39" rx="0.34"></rect>
  <path d="M165.45,53.1h-7.2a.34.34,0,0,0-.34.33V65.15a.34.34,0,0,0,.34.34h7.2a.34.34,0,0,0,.34-.34V63.7a.34.34,0,0,0-.34-.34h-5.24V60.27h4.38a.34.34,0,0,0,.33-.34V58.46a.34.34,0,0,0-.33-.33h-4.38V55.22h5.24a.34.34,0,0,0,.34-.33V53.43A.34.34,0,0,0,165.45,53.1Z" transform="translate(-24.79 -29.81)"></path>
  <path d="M97.39,47.82a.53.53,0,0,0,.52.31h1.72a.35.35,0,0,0,.33-.52L93.88,34.33a.34.34,0,0,0-.34-.22h-.19a.36.36,0,0,0-.34.22L86.87,47.61a.35.35,0,0,0,.34.52h1.71a.6.6,0,0,0,.58-.4l1-2.13.27-.6a8.52,8.52,0,0,1,1-.06c2.76,0,4.63,1.13,5.63,2.89Zm-5.74-4.91,1.72-3.84h.06l2,4.34.06.12a10.21,10.21,0,0,0-3.62-.62Z" transform="translate(-24.79 -29.81)"></path>
  <path d="M130,34.68a.38.38,0,0,1,.38-.37H136a4.28,4.28,0,0,1,4.31,4.24,4.36,4.36,0,0,1-2.93,4l2.71,5a.37.37,0,0,1-.34.57H137.7a.34.34,0,0,1-.32-.18l-2.62-5.23h-2.19v5a.39.39,0,0,1-.38.38h-1.81a.38.38,0,0,1-.38-.38Zm5.8,5.93a2,2,0,0,0,2-2,2,2,0,0,0-2-1.91h-3.21v3.93Z" transform="translate(-24.79 -29.81)"></path>
  <path d="M158,43.17l.56-1a.47.47,0,0,1,.66-.12,5.61,5.61,0,0,0,2.45.66c.79,0,1.3-.31,1.3-.86s-.58-1-2-1.65c-1.63-.69-3-1.65-3-3.32,0-1.27,1.09-2.79,3.62-2.79a6.12,6.12,0,0,1,3.12.79.56.56,0,0,1,.21.73l-.48.86a.57.57,0,0,1-.69.21,6.23,6.23,0,0,0-2.16-.53c-.9,0-1.19.38-1.19.76,0,.65.66.93,1.69,1.36,1.93.81,3.51,1.6,3.51,3.5,0,1.57-1.55,3-3.9,3a5.72,5.72,0,0,1-3.49-1A.42.42,0,0,1,158,43.17Z" transform="translate(-24.79 -29.81)"></path>
</svg>